<?xml version="1.0" encoding="UTF-8"?>
<svg id="Capa_1" data-name="Capa 1" xmlns="http://www.w3.org/2000/svg" viewBox="0 0 512 512">
  <defs>
    <style>
      .cls-1 {
        stroke-width: 0px;
      }
    </style>
  </defs>
  <path class="cls-1" d="m390.96,256.47c0,78.28,0,156.56,0,234.85,0,1.78,0,3.57,0,5.35-.03,6.61-2.53,11.85-8.92,14.32-6.05,2.34-11.27.49-15.78-4.06-14.15-14.24-28.37-28.4-42.56-42.6-64.64-64.67-129.29-129.35-193.93-194.02-11.7-11.7-11.66-16.92.22-28.8C207.56,163.9,285.14,86.3,362.72,8.7c1.89-1.89,3.7-3.9,5.8-5.55,8.26-6.5,19.67-2.47,21.93,7.82.61,2.78.5,5.76.5,8.64.02,78.95.02,157.9.02,236.85Z"/>
</svg>