<svg xmlns="http://www.w3.org/2000/svg" viewBox="0 0 1920 1080" >
<!-- <g>
  <title>background</title>
  <rect class="fondo" fill="#ff0000" width="100%" height="100%" id="canvas_background" y="-1" x="-1"/>
 </g>
 -->
 <g>
  <title>Layer 1</title>
  <path id="svg_3" d="m1045.24694,725.09479l-59.90234,-46.66016c-6.27735,-4.89062 -15.4375,-0.41797 -15.4375,7.54297l0,15.08203l-101.53516,0c-5.62891,0 -10.1875,4.5586 -10.1875,10.1875l0,42.78125c0,5.625 4.55859,10.1875 10.1875,10.1875l101.53516,0l0,15.08203c0,7.95703 9.16015,12.4336 15.4375,7.53907l59.90234,-46.65625c4.91406,-3.82813 4.91406,-11.25782 0,-15.08594zm0,0"/>
  <g id="svg_4">
   <path id="svg_1" d="m484.55666,471.04506c-25.90625,-3.65234 -49.86719,14.39063 -53.51563,40.29688c-3.65234,25.90625 14.39063,49.86719 40.29688,53.51953c25.91015,3.64844 49.86719,-14.39453 53.51953,-40.30078c3.64844,-25.90625 -14.39453,-49.86719 -40.30078,-53.51563zm0,0"/>
   <path id="svg_2" d="m552.76369,653.01772l51.71484,-69.59375c7.07813,-9.52344 5.09375,-22.98047 -4.42968,-30.05859s-22.98047,-5.09375 -30.0586,4.42968l-42.35937,57.00391l-40.94922,-14l20.91406,2.71094c-3.05469,-10.32031 -11.875,-18.44141 -23.23047,-20.04297c-28.91406,-4.05469 -50.53906,-7.00391 -65.98828,-9.0625c-7.41797,-0.98828 -14.95312,0.52734 -21.41016,4.30859l-75.17578,44.04688c-7.03125,4.125 -11.125,11.87109 -10.5664,20.0039l6.70312,97.71485c0.8086,11.83594 11.0586,20.77734 22.90235,19.96484c11.83593,-0.8125 20.77734,-11.0664 19.96484,-22.90234l-5.79297,-84.44531l28.24609,-16.5586l-17.26562,122.58594l-4.67188,68.97656l-92.39062,15.9375c-13.81641,2.38672 -23.64063,15.21875 -21.67188,29.10156c2.04688,14.4336 15.58985,24.26954 29.91016,21.80079l112.88672,-19.47266c11.71875,-2.02344 20.53516,-11.79688 21.33984,-23.66406l5.32422,-78.64063l30.4961,5.00781l29.54687,62.67579l12.54297,118.64843c1.39844,13.23828 12.58594,23.07422 25.60547,23.07422c15.42578,0 27.27344,-13.34375 25.67187,-28.49219l-13.0039,-122.98828c-0.30469,-2.87109 -1.08594,-5.67187 -2.31641,-8.28125l-35.14062,-74.54687l12.36718,-89.39844l-29.69922,-17.40625l55.78907,19.07813c8.83984,3.02343 18.62109,-0.01954 24.19531,-7.51563zm0,0"/>
  </g>
  <g stroke="null" transform="rotate(45 1488.869750976563,740.1958007812499) " id="svg_38">
   <g stroke="null" id="svg_16">
    <g stroke="null" id="svg_17">
     <path stroke="null" id="svg_18" d="m141.87273,94.61244l-2.241,2.241c-0.294,0.295 -0.382,0.753 -0.224,1.138c0.159,0.385 0.535,0.652 0.952,0.652l9.457,0c0.568,0 1.034,-0.492 1.034,-1.061l0,-9.458c0,-0.417 -0.254,-0.792 -0.639,-0.952c-0.384,-0.159 -0.828,-0.071 -1.123,0.223l-2.242,2.242l-5.939,-5.939c-0.968,-0.968 -2.537,-0.968 -3.505,0l-1.469,1.469c-0.465,0.465 -0.726,1.096 -0.726,1.752c0,0.657 0.261,1.288 0.726,1.753l5.939,5.94z"/>
     <path stroke="null" id="svg_19" d="m149.81773,113.03844l-9.458,0c-0.418,0 -0.793,0.233 -0.952,0.619c-0.158,0.384 -0.07,0.818 0.223,1.113l2.242,2.237l-5.94,5.938c-0.464,0.465 -0.725,1.094 -0.725,1.751c0,0.656 0.261,1.286 0.725,1.752l1.471,1.469c0.968,0.968 2.537,0.968 3.504,0l5.939,-5.939l2.241,2.242c0.297,0.294 0.741,0.382 1.125,0.223c0.385,-0.159 0.639,-0.534 0.639,-0.95l0,-9.458c0,-0.57 -0.466,-0.997 -1.034,-0.997z"/>
     <path stroke="null" id="svg_20" d="m174.28173,117.00344l2.242,-2.242c0.293,-0.295 0.381,-0.721 0.222,-1.104c-0.158,-0.385 -0.533,-0.618 -0.951,-0.618l-9.457,0c-0.567,0 -1.033,0.427 -1.033,0.996l0,9.458c0,0.417 0.253,0.792 0.638,0.952c0.385,0.158 0.83,0.07 1.123,-0.225l2.242,-2.242l5.94,5.94c0.967,0.968 2.536,0.968 3.504,0l1.47,-1.47c0.467,-0.466 0.727,-1.096 0.727,-1.752c0,-0.658 -0.26,-1.288 -0.727,-1.752l-5.94,-5.941z"/>
     <path stroke="null" id="svg_21" d="m166.33773,98.64244l9.457,0c0.418,0 0.793,-0.267 0.951,-0.652c0.159,-0.385 0.071,-0.835 -0.222,-1.13l-2.242,-2.246l5.938,-5.942c0.466,-0.464 0.728,-1.096 0.728,-1.753c0,-0.657 -0.262,-1.288 -0.728,-1.752l-1.47,-1.47c-0.967,-0.968 -2.537,-0.968 -3.503,0l-5.939,5.939l-2.24,-2.242c-0.295,-0.294 -0.74,-0.382 -1.125,-0.223c-0.385,0.159 -0.638,0.535 -0.638,0.951l0,9.458c0,0.569 0.465,1.062 1.033,1.062z"/>
     <circle stroke="null" id="svg_22" r="7.360001" cy="105.807441" cx="158.077728"/>
    </g>
   </g>
   <g stroke="null" transform="matrix(5.944638490455732,0,0,5.944638490455732,549.1515197085755,111.20592424521419) " id="svg_23"/>
   <g stroke="null" transform="matrix(5.944638490455732,0,0,5.944638490455732,549.1515197085755,111.20592424521419) " id="svg_24"/>
   <g stroke="null" transform="matrix(5.944638490455732,0,0,5.944638490455732,549.1515197085755,111.20592424521419) " id="svg_25"/>
   <g stroke="null" transform="matrix(5.944638490455732,0,0,5.944638490455732,549.1515197085755,111.20592424521419) " id="svg_26"/>
   <g stroke="null" transform="matrix(5.944638490455732,0,0,5.944638490455732,549.1515197085755,111.20592424521419) " id="svg_27"/>
   <g stroke="null" transform="matrix(5.944638490455732,0,0,5.944638490455732,549.1515197085755,111.20592424521419) " id="svg_28"/>
   <g stroke="null" transform="matrix(5.944638490455732,0,0,5.944638490455732,549.1515197085755,111.20592424521419) " id="svg_29"/>
   <g stroke="null" transform="matrix(5.944638490455732,0,0,5.944638490455732,549.1515197085755,111.20592424521419) " id="svg_30"/>
   <g stroke="null" transform="matrix(5.944638490455732,0,0,5.944638490455732,549.1515197085755,111.20592424521419) " id="svg_31"/>
   <g stroke="null" transform="matrix(5.944638490455732,0,0,5.944638490455732,549.1515197085755,111.20592424521419) " id="svg_32"/>
   <g stroke="null" transform="matrix(5.944638490455732,0,0,5.944638490455732,549.1515197085755,111.20592424521419) " id="svg_33"/>
   <g stroke="null" transform="matrix(5.944638490455732,0,0,5.944638490455732,549.1515197085755,111.20592424521419) " id="svg_34"/>
   <g stroke="null" transform="matrix(5.944638490455732,0,0,5.944638490455732,549.1515197085755,111.20592424521419) " id="svg_35"/>
   <g stroke="null" transform="matrix(5.944638490455732,0,0,5.944638490455732,549.1515197085755,111.20592424521419) " id="svg_36"/>
   <g stroke="null" transform="matrix(5.944638490455732,0,0,5.944638490455732,549.1515197085755,111.20592424521419) " id="svg_37"/>
  </g>
  <text stroke="null" transform="matrix(8.944827545716912,0,0,11.958477038233466,-398.3571551297889,-1545.5546516451393) " font-weight="bold" xml:space="preserve" text-anchor="start" font-family="Helvetica, Arial, sans-serif" font-size="30" id="svg_39" y="160.539611" x="52.107015" fill-opacity="null" stroke-opacity="null" stroke-width="0" fill="#000000">EVACUACIÓN</text>
  <ellipse fill="null" stroke-width="null" stroke-opacity="null" fill-opacity="null" cx="1508.571428" cy="731.361607" id="svg_10" rx="52.142857" ry="52.142857" stroke="null"/>
  <path id="svg_11" d="m1440.13423,727.96852l-47.34077,-28.88108c-4.96099,-3.02713 -12.20025,-0.25871 -12.20025,4.66885l0,9.33527l-80.24316,0c-4.44853,0 -8.05118,2.82162 -8.05118,6.30572l0,26.48017c0,3.48168 3.60265,6.30572 8.05118,6.30572l80.24316,0l0,9.33527c0,4.92514 7.23926,7.69599 12.20025,4.66643l47.34077,-28.87865c3.88358,-2.36949 3.88358,-6.96822 0,-9.3377zm0,0" stroke="null"/>
  <path id="svg_12" d="m1721.7694,727.96852l-47.34078,-28.88108c-4.96099,-3.02713 -12.20025,-0.25871 -12.20025,4.66885l0,9.33527l-80.24316,0c-4.44853,0 -8.05118,2.82162 -8.05118,6.30572l0,26.48017c0,3.48169 3.60265,6.30572 8.05118,6.30572l80.24316,0l0,9.33527c0,4.92514 7.23926,7.69599 12.20025,4.66644l47.34078,-28.87866c3.88357,-2.36949 3.88357,-6.96822 0,-9.3377zm0,0" stroke="null" transform="rotate(-180 1649.3079833984375,732.63671875) "/>
  <path id="svg_13" d="m1580.13424,589.39709l-47.34078,-28.88108c-4.96099,-3.02713 -12.20025,-0.25871 -12.20025,4.66885l0,9.33527l-80.24316,0c-4.44853,0 -8.05118,2.82162 -8.05118,6.30572l0,26.48017c0,3.48169 3.60265,6.30572 8.05118,6.30572l80.24316,0l0,9.33527c0,4.92514 7.23926,7.69599 12.20025,4.66644l47.34078,-28.87866c3.88357,-2.36949 3.88357,-6.96822 0,-9.3377zm0,0" stroke="null" transform="rotate(90 1507.6728515625002,594.0653076171876) "/>
  <path id="svg_14" d="m1580.13424,866.38159l-47.34078,-28.88108c-4.96099,-3.02713 -12.20025,-0.25871 -12.20025,4.66885l0,9.33527l-80.24316,0c-4.44853,0 -8.05118,2.82162 -8.05118,6.30572l0,26.48017c0,3.48169 3.60265,6.30572 8.05118,6.30572l80.24316,0l0,9.33527c0,4.92514 7.23926,7.69599 12.20025,4.66644l47.34078,-28.87866c3.88357,-2.36949 3.88357,-6.96822 0,-9.3377zm0,0" stroke="null" transform="rotate(-90 1507.6728515625,871.0498046874999) "/>
 </g>
</svg>